:SAMPLES-PER-SECOND 30
:FULLY-SPECIFIED
:DEGREES
57
root  -4.4455 41.0314 -1.58195 -26.9081 -85.5201 29.2471
RightUpLeg  3.47461 -1.95692 -0.527694
RightLeg  -4.16955 -26.1928 3.13648
RightFoot  -1.59818 -0.0183336 0.0219286
RightToes  -3.10678e-008 1.75238e-005 3.56266e-009
Spine  4.66314 -2.94754 -13.3597
Spine1  -4.36714 -5.16211 15.4835
HEad  -1.48327 28.8333 -4.76881
LeftShoulder1  1.77255 -2.67537 -22.3699
LeftArm  -21.5386 -14.6178 -42.6201
LeftForeArm  127.225 -78.547 -121.397
LeftHand  -0.659339 -3.29037 9.06434
RightShoulder  1.94518 3.08881 23.3671
RightArm  -5.7991 -27.5106 39.9647
RightForeArm  84.4472 79.7318 87.9598
RightHand  -0.0899801 8.2303 -1.13975
LeftUpLeg  1.70422 1.48066 2.78454
LeftLeg  -2.80276 12.3306 -1.70275
LeftFoot  2.82261 0.642189 -5.30548
LeftToes  4.7643e-008 1.47522e-008 1.32869e-009
58
root  -4.37941 41.0283 -1.65965 -23.5101 -84.7011 25.8316
RightUpLeg  3.43978 -1.94901 -0.47595
RightLeg  -4.16775 -27.0631 3.18608
RightFoot  -1.70089 -0.0100112 -0.110486
RightToes  -3.10678e-008 1.75238e-005 3.56266e-009
Spine  5.01386 -2.38537 -12.8737
Spine1  -4.52982 -4.48877 14.6292
HEad  -1.28315 27.294 -4.54112
LeftShoulder1  1.77453 -2.63242 -22.6171
LeftArm  -22.3869 -13.7657 -42.0625
LeftForeArm  127.966 -78.2246 -123.421
LeftHand  -0.651418 -4.17515 8.17094
RightShoulder  1.99969 3.22761 23.5768
RightArm  -5.80098 -27.8923 39.744
RightForeArm  84.1745 79.7429 87.3261
RightHand  -0.197832 8.23008 -2.06553
LeftUpLeg  1.26777 1.60105 2.90946
LeftLeg  -2.36831 11.2825 -1.71543
LeftFoot  2.90853 0.672185 -5.51713
LeftToes  4.7643e-008 1.47522e-008 1.32869e-009
59
root  -4.31212 41.0148 -1.75523 -19.2473 -83.2724 21.669
RightUpLeg  3.20571 -2.08869 -0.478731
RightLeg  -3.90845 -28.3932 3.22847
RightFoot  -1.94395 -0.0167374 -0.0114829
RightToes  -3.10678e-008 1.75238e-005 3.56266e-009
Spine  5.1657 -1.9865 -13.0958
Spine1  -4.39767 -4.12675 14.716
HEad  -1.63495 27.0154 -5.07136
LeftShoulder1  1.72439 -2.44242 -22.7004
LeftArm  -22.8285 -14.165 -42.0364
LeftForeArm  128.184 -78.1881 -123.678
LeftHand  -0.669373 -4.1335 8.43718
RightShoulder  2.03577 3.35288 23.5576
RightArm  -5.88412 -28.5774 39.4581
RightForeArm  87.1543 79.7215 91.016
RightHand  -0.215894 7.81876 -2.26395
LeftUpLeg  0.52325 1.62543 2.98434
LeftLeg  -1.78164 9.74418 -1.68683
LeftFoot  2.93771 0.692441 -5.66863
LeftToes  4.7643e-008 1.47522e-008 1.32869e-009
60
root  -4.25301 40.9929 -1.83216 -15.3419 -81.36 17.8017
RightUpLeg  2.98678 -2.37887 -0.543894
RightLeg  -3.427 -30.0205 3.25573
RightFoot  -2.311 -0.0190641 0.0174324
RightToes  -3.10678e-008 1.75238e-005 3.56266e-009
Spine  5.73477 -1.73916 -13.0937
Spine1  -4.76058 -3.88103 14.6989
HEad  -1.80135 27.1824 -5.33046
LeftShoulder1  1.73553 -2.4795 -22.7083
LeftArm  -22.7034 -14.123 -42.0004
LeftForeArm  129.3 -78.0573 -124.684
LeftHand  -0.641486 -3.4833 8.63781
RightShoulder  2.00886 3.26489 23.5462
RightArm  -6.29098 -29.0178 39.3481
RightForeArm  88.8866 79.7404 92.2011
RightHand  -0.163162 8.17476 -1.77024
LeftUpLeg  -0.230322 1.36574 2.8797
LeftLeg  -1.1911 8.11493 -1.44673
LeftFoot  2.93304 0.705922 -5.77783
LeftToes  4.7643e-008 1.47522e-008 1.32869e-009
61
root  -4.23082 40.9747 -1.91996 -12.9961 -79.7279 15.3393
RightUpLeg  3.13631 -2.48601 -0.423657
RightLeg  -3.35942 -31.5236 3.34811
RightFoot  -2.52767 -0.0126723 -0.0903283
RightToes  -3.10678e-008 1.75238e-005 3.56266e-009
Spine  5.65456 -1.4529 -13.0038
Spine1  -4.25416 -3.62434 14.5679
HEad  -2.45188 27.795 -6.37235
LeftShoulder1  1.79414 -2.70661 -22.5851
LeftArm  -22.334 -13.8264 -41.7256
LeftForeArm  129.705 -77.9093 -125.543
LeftHand  -0.603093 -3.57745 8.06002
RightShoulder  2.02386 3.32746 23.4856
RightArm  -6.63488 -28.645 39.4684
RightForeArm  86.738 79.7699 89.5749
RightHand  -0.207665 8.50533 -2.11915
LeftUpLeg  -0.428125 1.33536 2.93597
LeftLeg  -1.19355 6.61554 -1.43814
LeftFoot  3.0035 0.694651 -5.6628
LeftToes  4.7643e-008 1.47522e-008 1.32869e-009
62
root  -4.19913 40.9537 -1.99562 -11.1836 -77.8035 13.4462
RightUpLeg  3.22902 -2.66922 -0.391963
RightLeg  -3.23212 -33.2047 3.44016
RightFoot  -2.75992 -0.00943698 -0.155598
RightToes  -3.10678e-008 1.75238e-005 3.56266e-009
Spine  5.83473 -1.39458 -12.9057
Spine1  -4.24233 -3.54459 14.3316
HEad  -1.8246 27.1111 -5.78029
LeftShoulder1  1.88737 -3.03595 -22.5569
LeftArm  -21.9217 -13.7682 -41.3628
LeftForeArm  129.762 -77.9652 -125.281
LeftHand  -0.63648 -3.74131 8.35434
RightShoulder  2.12771 3.59739 23.8439
RightArm  -6.69912 -28.8085 39.0778
RightForeArm  86.9999 79.7327 90.639
RightHand  -0.26245 7.97888 -2.64469
LeftUpLeg  -0.786755 1.18409 2.89449
LeftLeg  -1.06395 4.9024 -1.35277
LeftFoot  3.06082 0.712718 -5.78596
LeftToes  4.7643e-008 1.47522e-008 1.32869e-009
63
root  -4.18364 40.9265 -2.0682 -9.98578 -76.1379 12.0948
RightUpLeg  3.19586 -2.77199 -0.278515
RightLeg  -2.61452 -34.7384 3.18863
RightFoot  -3.1692 -0.0158598 -0.0789144
RightToes  -3.10678e-008 1.75238e-005 3.56266e-009
Spine  5.74699 -1.38306 -12.779
Spine1  -3.70782 -3.55483 14.1069
HEad  -2.17245 28.7477 -6.34799
LeftShoulder1  1.81255 -2.81005 -22.396
LeftArm  -21.5182 -14.0583 -41.5973
LeftForeArm  130.008 -77.9527 -125.41
LeftHand  -0.569577 -3.68411 7.54175
RightShoulder  2.0421 3.34284 23.7032
RightArm  -6.83484 -28.4159 39.5074
RightForeArm  86.4055 79.7522 89.6089
RightHand  -0.214333 7.96291 -2.2327
LeftUpLeg  -0.87444 1.12089 2.89884
LeftLeg  -1.17311 3.40519 -1.32245
LeftFoot  3.06216 0.687011 -5.58229
LeftToes  4.7643e-008 1.47522e-008 1.32869e-009
64
root  -4.16747 40.9023 -2.11243 -8.84334 -74.6451 10.9133
RightUpLeg  3.20838 -2.87112 -0.176414
RightLeg  -2.44314 -36.1542 3.21812
RightFoot  -3.39594 -0.0208067 -0.0271254
RightToes  -3.10678e-008 1.75238e-005 3.56266e-009
Spine  5.87934 -1.4233 -12.919
Spine1  -3.705 -3.66943 14.4971
HEad  -1.44521 28.6899 -6.45055
LeftShoulder1  1.67906 -2.33676 -22.4358
LeftArm  -21.4056 -14.0976 -42.1766
LeftForeArm  130.081 -77.8133 -126.116
LeftHand  -0.53023 -3.179 7.40703
RightShoulder  2.11306 3.58481 23.681
RightArm  -6.93598 -28.0561 39.4459
RightForeArm  84.6737 79.7524 87.7087
RightHand  -0.226019 8.17412 -2.30811
LeftUpLeg  -1.05635 0.795787 2.77721
LeftLeg  -1.28032 2.38474 -1.03032
LeftFoot  2.97854 0.682995 -5.5793
LeftToes  4.7643e-008 1.47522e-008 1.32869e-009
65
root  -4.15522 40.8826 -2.1596 -7.90108 -73.3988 9.92157
RightUpLeg  3.23065 -2.90803 -0.00211518
RightLeg  -2.32382 -37.4325 3.26633
RightFoot  -3.61317 -0.0198695 -0.0626307
RightToes  -3.10678e-008 1.75238e-005 3.56266e-009
Spine  5.84109 -1.49578 -12.3051
Spine1  -3.60001 -3.63182 13.7475
HEad  -0.84025 28.7204 -6.11721
LeftShoulder1  1.81719 -2.8003 -22.5143
LeftArm  -21.7787 -13.9011 -41.6869
LeftForeArm  130.787 -77.9028 -125.875
LeftHand  -0.65394 -4.19677 8.199
RightShoulder  2.11854 3.54666 23.9357
RightArm  -7.22416 -28.2063 39.6464
RightForeArm  84.9397 79.7428 88.2541
RightHand  -0.172601 8.28283 -1.84186
LeftUpLeg  -1.19207 0.703397 2.80296
LeftLeg  -1.38661 1.2747 -0.905524
LeftFoot  2.9725 0.654931 -5.3586
LeftToes  4.7643e-008 1.47522e-008 1.32869e-009
66
root  -4.15683 40.8636 -2.20984 -6.92146 -72.1252 8.90039
RightUpLeg  3.38633 -2.87547 0.238581
RightLeg  -2.54831 -38.7604 3.49763
RightFoot  -3.74823 -0.0196186 -0.0793248
RightToes  -3.10678e-008 1.75238e-005 3.56266e-009
Spine  5.69757 -1.51609 -12.5929
Spine1  -3.41096 -3.76037 14.396
HEad  -0.553387 29.1202 -5.954
LeftShoulder1  1.90624 -3.02374 -22.9223
LeftArm  -21.9214 -13.3426 -41.1904
LeftForeArm  131.342 -77.7811 -126.615
LeftHand  -0.604686 -3.64286 8.03075
RightShoulder  2.13545 3.68858 23.5526
RightArm  -6.97903 -28.4471 39.6214
RightForeArm  84.796 79.7465 87.9974
RightHand  -0.221325 8.18773 -2.26577
LeftUpLeg  -1.55979 0.657019 2.91408
LeftLeg  -1.03841 0.0180991 -0.762957
LeftFoot  2.72339 0.684901 -5.68409
LeftToes  4.7643e-008 1.47522e-008 1.32869e-009
67
root  -4.13436 40.845 -2.24434 -6.32216 -71.5031 8.38145
RightUpLeg  3.21386 -2.83981 0.400073
RightLeg  -2.44133 -39.477 3.48422
RightFoot  -3.85507 -0.0199068 -0.0946735
RightToes  -3.10678e-008 1.75238e-005 3.56266e-009
Spine  5.16641 -1.37938 -12.1168
Spine1  -2.82877 -3.53552 13.7884
HEad  -0.89836 28.8854 -5.86179
LeftShoulder1  1.87863 -3.0257 -22.4638
LeftArm  -22.3086 -13.4403 -42.0182
LeftForeArm  130.399 -78.0111 -125.23
LeftHand  -0.605992 -4.16957 7.62965
RightShoulder  2.21391 3.82676 24.0932
RightArm  -7.07452 -28.2817 39.2218
RightForeArm  84.5023 79.7344 87.9583
RightHand  -0.194354 8.16118 -2.03927
LeftUpLeg  -1.84211 0.554606 2.99195
LeftLeg  -0.945414 -0.605274 -0.64346
LeftFoot  2.49917 0.703114 -5.91552
LeftToes  4.7643e-008 1.47522e-008 1.32869e-009
68
root  -4.14975 40.8154 -2.27192 -5.45325 -70.575 7.53128
RightUpLeg  3.29054 -2.79327 0.682905
RightLeg  -2.6813 -40.6125 3.70693
RightFoot  -3.92872 -0.0185348 -0.139457
RightToes  -3.10678e-008 1.75238e-005 3.56266e-009
Spine  4.75343 -1.41944 -11.797
Spine1  -2.32485 -3.55586 13.5988
HEad  -1.0035 28.3545 -5.50428
LeftShoulder1  1.87806 -2.9737 -22.699
LeftArm  -22.7196 -12.8417 -42.4571
LeftForeArm  129.975 -78.1447 -124.428
LeftHand  -0.56365 -4.17994 7.11216
RightShoulder  2.31395 4.10268 24.3203
RightArm  -6.93024 -28.0757 38.8532
RightForeArm  84.1745 79.7328 87.6182
RightHand  -0.183252 8.23488 -1.93731
LeftUpLeg  -2.23432 0.356319 3.05409
LeftLeg  -0.511563 -1.48667 -0.372711
LeftFoot  2.15072 0.683196 -5.88359
LeftToes  4.7643e-008 1.47522e-008 1.32869e-009
69
root  -4.12818 40.7945 -2.32634 -5.00029 -69.9778 7.04282
RightUpLeg  3.21348 -2.72126 0.915235
RightLeg  -2.53889 -41.3115 3.63387
RightFoot  -4.06636 -0.017973 -0.173564
RightToes  -3.10678e-008 1.75238e-005 3.56266e-009
Spine  4.36442 -1.26871 -11.3913
Spine1  -1.61725 -3.36358 13.1139
HEad  -1.52318 27.438 -5.08972
LeftShoulder1  1.93498 -3.09187 -23.0564
LeftArm  -22.9894 -10.9588 -41.8273
LeftForeArm  130.401 -77.9714 -125.43
LeftHand  -0.577769 -4.10231 7.34234
RightShoulder  2.38484 4.27191 24.5834
RightArm  -7.00883 -27.3556 38.8925
RightForeArm  83.6064 79.7227 87.1221
RightHand  -0.227911 8.14278 -2.32919
LeftUpLeg  -2.5537 0.355508 3.15784
LeftLeg  -0.170117 -2.01133 -0.328108
LeftFoot  2.0248 0.662286 -5.75529
LeftToes  4.7643e-008 1.47522e-008 1.32869e-009
70
root  -4.09971 40.7809 -2.37064 -4.61761 -69.6804 6.5273
RightUpLeg  3.25563 -2.71212 1.09495
RightLeg  -2.49224 -41.6626 3.71346
RightFoot  -4.15931 -0.0156331 -0.235435
RightToes  -3.10678e-008 1.75238e-005 3.56266e-009
Spine  4.08989 -0.89224 -10.9361
Spine1  -0.836755 -2.97898 12.7441
HEad  -2.20388 26.3984 -5.19407
LeftShoulder1  2.05782 -3.31576 -23.9492
LeftArm  -23.8728 -9.34627 -41.585
LeftForeArm  129.415 -78.0678 -124.664
LeftHand  -0.578233 -3.60291 7.71775
RightShoulder  2.32226 4.07073 24.5726
RightArm  -7.10858 -25.2592 39.1629
RightForeArm  80.7343 79.6957 83.8897
RightHand  -0.168686 8.43447 -1.79504
LeftUpLeg  -2.66366 0.46641 3.34797
LeftLeg  0.0687471 -2.44699 -0.312281
LeftFoot  1.83705 0.66413 -5.84369
LeftToes  4.7643e-008 1.47522e-008 1.32869e-009
